<mxfile host="app.diagrams.net" modified="2024-05-28T14:03:30.783Z" agent="Mozilla/5.0 (X11; Linux x86_64) AppleWebKit/537.36 (KHTML, like Gecko) Chrome/125.0.0.0 Safari/537.36" version="24.4.9" etag="MEkVxnYfkVKOJGYH1eCZ" type="github">
  <diagram name="Page-1" id="nxpsBueSDO8aHtpDQpYK">
    <mxGraphModel>
      <root>
        <mxCell id="0" />
        <mxCell id="1" parent="0" />
      </root>
    </mxGraphModel>
  </diagram>
</mxfile>
